<svg xmlns="http://www.w3.org/2000/svg" viewBox="0 0 600 600">
    <g id="Layer_1" data-name="Layer 1">
        <path id="frame" fill="none" d="M0 0h600v600H0z"/>
        <path id="rings" fill="#61dafb" d="M550 300.05c0-33.1-41.48-64.47-105.08-83.93 14.68-64.78 8.16-116.31-20.58-132.81-6.6-3.86-14.31-5.69-22.73-5.71v-.1c-28 0-64.72 20-101.81 54.59C262.7 97.67 226 77.91 198 77.91V78a45.47 45.47 0 0 0-23 5.7c-28.64 16.5-35.06 67.94-20.28 132.52C91.28 235.78 50 267.05 50 300.05S91.48 364.52 155.08 384c-14.68 64.78-8.16 116.32 20.58 132.82 6.63 3.87 14.37 5.7 22.93 5.7 28 0 64.72-20 101.82-54.59 31.65 29.37 88.34 69.48 124.84 48.48 28.64-16.5 35.06-67.94 20.29-132.51C508.72 364.42 550 333.05 550 300.05zM401.51 100.22v.1a23.63 23.63 0 0 1 11.62 2.68c13.86 8 19.87 38.2 15.18 77.11-1.12 9.57-2.95 19.65-5.2 29.94a493 493 0 0 0-64.71-11.1A498.3 498.3 0 0 0 316 148c33.17-30.83 64.31-47.73 85.51-47.78zM224.38 376c-14.47-2.13-28.44-4.78-41.79-8 3.77-13.14 8.46-26.69 13.76-40.23A527 527 0 0 0 224.38 376zm-42.09-143.89c13.35-3.15 27.41-5.9 42-8-9.49 14.89-17.93 29.08-27.93 48.58a437.68 437.68 0 0 1-14.07-40.58zm26 68.25a545.09 545.09 0 0 1 45.65-79.55 532.57 532.57 0 0 1 91.93-.1A534.76 534.76 0 0 1 391.72 300a545.19 545.19 0 0 1-45.65 79.55 533.57 533.57 0 0 1-91.93.1 535.78 535.78 0 0 1-45.86-79.29zm195.27 27c5.5 13.65 10.19 27.29 14.06 40.54-13.35 3.26-27.41 6-42 8.14a538 538 0 0 0 27.93-48.69zm-28-103.28c14.47 2.14 28.43 4.78 41.79 8-3.78 13.14-8.46 26.69-13.76 40.24a521.89 521.89 0 0 0-28.07-48.25zM328 196.67a557.63 557.63 0 0 0-56.36 0 396.42 396.42 0 0 1 28-32.59A418.31 418.31 0 0 1 328 196.67zm-141.77-93.3c3.06-1.83 7-2.65 11.72-2.65v-.1c21.1 0 52.39 16.81 85.61 47.46a482.69 482.69 0 0 0-42.09 50.83 475.86 475.86 0 0 0-64.82 11.2 310.265 310.265 0 0 1-5.3-29.53c-4.76-38.91 1.15-69.16 14.91-77.21zM160.58 362c-10.09-3.16-19.67-6.62-28.54-10.39C96 336.21 72.63 316 72.63 300.05S96 263.79 132 248.51c8.77-3.77 18.35-7.13 28.23-10.28a490 490 0 0 0 22.93 62A483.81 483.81 0 0 0 160.58 362zm37.81 137.91a24.34 24.34 0 0 1-11.52-2.75C173 489.19 167 458.94 171.69 420c1.12-9.57 2.95-19.65 5.2-29.94a493 493 0 0 0 64.71 11.1 497.22 497.22 0 0 0 42.4 50.96c-33.23 30.88-64.41 47.77-85.61 47.77zM300.2 436a422.47 422.47 0 0 1-28.33-32.6 557.63 557.63 0 0 0 56.36 0A396.41 396.41 0 0 1 300.2 436zm113.54 60.7c-3.06 1.83-7 2.65-11.72 2.65-21.1 0-52.39-16.81-85.61-47.46a482.69 482.69 0 0 0 42.09-50.83 475.86 475.86 0 0 0 64.82-11.2 285.09 285.09 0 0 1 5.3 29.64c4.79 38.93-1.12 69.18-14.88 77.23zm54.12-145.14c-8.77 3.77-18.35 7.13-28.24 10.29a486.52 486.52 0 0 0-22.93-62 481.85 481.85 0 0 0 22.63-61.73c10.09 3.16 19.67 6.62 28.64 10.39 36.08 15.38 59.41 35.55 59.41 51.54s-23.44 36.26-59.51 51.54z"/>
        <ellipse id="center" cx="299.9" cy="300.05" fill="#61dafb" rx="46.58" ry="46.55"/>
    </g>
</svg>
